<svg xmlns="http://www.w3.org/2000/svg" xmlns:xlink="http://www.w3.org/1999/xlink" width="464" zoomAndPan="magnify" viewBox="0 0 348 105.749996" height="141" preserveAspectRatio="xMidYMid meet" version="1.0"><defs><g/><clipPath id="2c1611d8f9"><path d="M 146.171875 38.945312 L 182.085938 38.945312 L 182.085938 74.859375 L 146.171875 74.859375 Z M 146.171875 38.945312 " clip-rule="nonzero"/></clipPath></defs><g fill="#000000" fill-opacity="1"><g transform="translate(22.043238, 72.291107)"><g><path d="M 27.34375 -25.546875 C 26.4375 -27.015625 25.332031 -28.097656 24.03125 -28.796875 C 22.726562 -29.503906 21.09375 -29.859375 19.125 -29.859375 C 15.894531 -29.859375 13.554688 -28.816406 12.109375 -26.734375 C 10.660156 -24.660156 9.9375 -21.566406 9.9375 -17.453125 C 9.9375 -13.378906 10.648438 -10.394531 12.078125 -8.5 C 13.503906 -6.613281 15.800781 -5.671875 18.96875 -5.671875 C 21.363281 -5.671875 23.570312 -6.164062 25.59375 -7.15625 L 25.59375 -12.6875 L 18.671875 -12.6875 L 18.671875 -19.078125 L 32.859375 -19.078125 L 32.859375 -3.359375 C 31.210938 -2.128906 29.171875 -1.132812 26.734375 -0.375 C 24.296875 0.375 21.785156 0.75 19.203125 0.75 C 13.660156 0.75 9.484375 -0.695312 6.671875 -3.59375 C 3.867188 -6.488281 2.46875 -11.109375 2.46875 -17.453125 C 2.46875 -30.003906 7.988281 -36.28125 19.03125 -36.28125 C 22.238281 -36.28125 25.039062 -35.738281 27.4375 -34.65625 C 29.832031 -33.582031 31.65625 -32 32.90625 -29.90625 Z M 27.34375 -25.546875 "/></g></g></g><g fill="#000000" fill-opacity="1"><g transform="translate(58.361198, 72.291107)"><g><path d="M 9.1875 -11.734375 C 9.3125 -9.335938 9.894531 -7.613281 10.9375 -6.5625 C 11.976562 -5.519531 13.617188 -5 15.859375 -5 C 17.160156 -5 18.300781 -5.160156 19.28125 -5.484375 C 20.269531 -5.816406 21.132812 -6.445312 21.875 -7.375 L 26.796875 -3.84375 C 25.722656 -2.289062 24.328125 -1.128906 22.609375 -0.359375 C 20.890625 0.410156 18.539062 0.796875 15.5625 0.796875 C 11.125 0.796875 7.8125 -0.363281 5.625 -2.6875 C 3.445312 -5.019531 2.359375 -8.539062 2.359375 -13.25 C 2.359375 -22.882812 6.671875 -27.703125 15.296875 -27.703125 C 19.128906 -27.703125 22.050781 -26.617188 24.0625 -24.453125 C 26.070312 -22.285156 27.078125 -19.132812 27.078125 -15 L 27.078125 -11.734375 Z M 20.515625 -16.296875 C 20.515625 -20.390625 18.722656 -22.4375 15.140625 -22.4375 C 13.960938 -22.4375 12.992188 -22.234375 12.234375 -21.828125 C 11.484375 -21.429688 10.878906 -20.832031 10.421875 -20.03125 C 9.972656 -19.238281 9.625 -17.992188 9.375 -16.296875 Z M 20.515625 -16.296875 "/></g></g></g><g fill="#000000" fill-opacity="1"><g transform="translate(87.697895, 72.291107)"><g><path d="M 9.1875 -11.734375 C 9.3125 -9.335938 9.894531 -7.613281 10.9375 -6.5625 C 11.976562 -5.519531 13.617188 -5 15.859375 -5 C 17.160156 -5 18.300781 -5.160156 19.28125 -5.484375 C 20.269531 -5.816406 21.132812 -6.445312 21.875 -7.375 L 26.796875 -3.84375 C 25.722656 -2.289062 24.328125 -1.128906 22.609375 -0.359375 C 20.890625 0.410156 18.539062 0.796875 15.5625 0.796875 C 11.125 0.796875 7.8125 -0.363281 5.625 -2.6875 C 3.445312 -5.019531 2.359375 -8.539062 2.359375 -13.25 C 2.359375 -22.882812 6.671875 -27.703125 15.296875 -27.703125 C 19.128906 -27.703125 22.050781 -26.617188 24.0625 -24.453125 C 26.070312 -22.285156 27.078125 -19.132812 27.078125 -15 L 27.078125 -11.734375 Z M 20.515625 -16.296875 C 20.515625 -20.390625 18.722656 -22.4375 15.140625 -22.4375 C 13.960938 -22.4375 12.992188 -22.234375 12.234375 -21.828125 C 11.484375 -21.429688 10.878906 -20.832031 10.421875 -20.03125 C 9.972656 -19.238281 9.625 -17.992188 9.375 -16.296875 Z M 20.515625 -16.296875 "/></g></g></g><g fill="#000000" fill-opacity="1"><g transform="translate(117.034592, 72.291107)"><g><path d="M 20.125 0 L 12.9375 -11.140625 L 10.34375 -8.375 L 10.34375 0 L 3.71875 0 L 3.71875 -38.234375 L 10.34375 -38.234375 L 10.34375 -16.359375 L 19.40625 -26.9375 L 27.078125 -26.9375 L 16.921875 -15.609375 L 27.65625 0 Z M 20.125 0 "/></g></g></g><g fill="#000000" fill-opacity="1"><g transform="translate(145.272502, 72.291107)"><g/></g></g><g fill="#000000" fill-opacity="1"><g transform="translate(157.900372, 72.291107)"><g/></g></g><g fill="#000000" fill-opacity="1"><g transform="translate(170.528242, 72.291107)"><g/></g></g><g fill="#000000" fill-opacity="1"><g transform="translate(183.157257, 72.291107)"><g><path d="M 3.84375 0 L 3.84375 -35.53125 L 11.09375 -35.53125 L 11.09375 -6.625 L 26.03125 -6.625 L 26.03125 0 Z M 3.84375 0 "/></g></g></g><g fill="#000000" fill-opacity="1"><g transform="translate(209.798982, 72.291107)"><g><path d="M 19.609375 0 L 19.609375 -2.796875 C 16.992188 -0.398438 14.1875 0.796875 11.1875 0.796875 C 8.207031 0.796875 5.957031 0.015625 4.4375 -1.546875 C 2.914062 -3.117188 2.15625 -5.128906 2.15625 -7.578125 C 2.15625 -9.492188 2.546875 -11.078125 3.328125 -12.328125 C 4.109375 -13.578125 5.265625 -14.554688 6.796875 -15.265625 C 8.328125 -15.972656 10.53125 -16.472656 13.40625 -16.765625 L 19.078125 -17.296875 L 19.078125 -18.515625 C 19.078125 -20.015625 18.625 -21.039062 17.71875 -21.59375 C 16.8125 -22.15625 15.484375 -22.4375 13.734375 -22.4375 C 12.296875 -22.4375 11.054688 -22.195312 10.015625 -21.71875 C 8.984375 -21.238281 8.222656 -20.554688 7.734375 -19.671875 L 2.5625 -22.984375 C 3.46875 -24.503906 4.890625 -25.671875 6.828125 -26.484375 C 8.765625 -27.296875 11.101562 -27.703125 13.84375 -27.703125 C 18.03125 -27.703125 21.050781 -26.96875 22.90625 -25.5 C 24.769531 -24.039062 25.703125 -21.644531 25.703125 -18.3125 L 25.703125 0 Z M 19.078125 -12.5 L 15.71875 -12.1875 C 13.332031 -11.988281 11.613281 -11.535156 10.5625 -10.828125 C 9.507812 -10.128906 8.984375 -9.078125 8.984375 -7.671875 C 8.984375 -6.441406 9.328125 -5.597656 10.015625 -5.140625 C 10.703125 -4.691406 11.609375 -4.46875 12.734375 -4.46875 C 13.535156 -4.46875 14.515625 -4.71875 15.671875 -5.21875 C 16.828125 -5.726562 17.960938 -6.445312 19.078125 -7.375 Z M 19.078125 -12.5 "/></g></g></g><g fill="#000000" fill-opacity="1"><g transform="translate(239.033015, 72.291107)"><g><path d="M 21.078125 0 L 21.078125 -14.84375 C 21.078125 -17.644531 20.820312 -19.515625 20.3125 -20.453125 C 19.8125 -21.398438 18.859375 -21.875 17.453125 -21.875 C 15.484375 -21.875 13.113281 -20.570312 10.34375 -17.96875 L 10.34375 0 L 3.71875 0 L 3.71875 -26.9375 L 10.34375 -26.9375 L 10.34375 -23.4375 C 11.75 -24.84375 13.242188 -25.90625 14.828125 -26.625 C 16.421875 -27.34375 17.984375 -27.703125 19.515625 -27.703125 C 22.265625 -27.703125 24.316406 -26.945312 25.671875 -25.4375 C 27.023438 -23.9375 27.703125 -21.445312 27.703125 -17.96875 L 27.703125 0 Z M 21.078125 0 "/></g></g></g><g fill="#000000" fill-opacity="1"><g transform="translate(270.269026, 72.291107)"><g><path d="M 9.1875 -11.734375 C 9.3125 -9.335938 9.894531 -7.613281 10.9375 -6.5625 C 11.976562 -5.519531 13.617188 -5 15.859375 -5 C 17.160156 -5 18.300781 -5.160156 19.28125 -5.484375 C 20.269531 -5.816406 21.132812 -6.445312 21.875 -7.375 L 26.796875 -3.84375 C 25.722656 -2.289062 24.328125 -1.128906 22.609375 -0.359375 C 20.890625 0.410156 18.539062 0.796875 15.5625 0.796875 C 11.125 0.796875 7.8125 -0.363281 5.625 -2.6875 C 3.445312 -5.019531 2.359375 -8.539062 2.359375 -13.25 C 2.359375 -22.882812 6.671875 -27.703125 15.296875 -27.703125 C 19.128906 -27.703125 22.050781 -26.617188 24.0625 -24.453125 C 26.070312 -22.285156 27.078125 -19.132812 27.078125 -15 L 27.078125 -11.734375 Z M 20.515625 -16.296875 C 20.515625 -20.390625 18.722656 -22.4375 15.140625 -22.4375 C 13.960938 -22.4375 12.992188 -22.234375 12.234375 -21.828125 C 11.484375 -21.429688 10.878906 -20.832031 10.421875 -20.03125 C 9.972656 -19.238281 9.625 -17.992188 9.375 -16.296875 Z M 20.515625 -16.296875 "/></g></g></g><g fill="#000000" fill-opacity="1"><g transform="translate(299.605724, 72.291107)"><g><path d="M 24.28125 -7.671875 C 24.28125 -5.890625 23.832031 -4.363281 22.9375 -3.09375 C 22.039062 -1.832031 20.765625 -0.867188 19.109375 -0.203125 C 17.460938 0.460938 15.578125 0.796875 13.453125 0.796875 C 7.816406 0.796875 3.984375 -0.769531 1.953125 -3.90625 L 6.875 -7.375 C 7.6875 -6.269531 8.617188 -5.535156 9.671875 -5.171875 C 10.722656 -4.804688 11.847656 -4.625 13.046875 -4.625 C 16.191406 -4.625 17.765625 -5.539062 17.765625 -7.375 C 17.765625 -8.175781 17.316406 -8.796875 16.421875 -9.234375 C 15.535156 -9.671875 14.144531 -10.117188 12.25 -10.578125 C 8.664062 -11.367188 6.144531 -12.484375 4.6875 -13.921875 C 3.238281 -15.359375 2.515625 -17.222656 2.515625 -19.515625 C 2.515625 -21.890625 3.425781 -23.847656 5.25 -25.390625 C 7.070312 -26.929688 9.753906 -27.703125 13.296875 -27.703125 C 15.710938 -27.703125 17.835938 -27.316406 19.671875 -26.546875 C 21.515625 -25.773438 22.929688 -24.617188 23.921875 -23.078125 L 18.96875 -19.5625 C 17.789062 -21.375 15.867188 -22.28125 13.203125 -22.28125 C 11.828125 -22.28125 10.785156 -22.046875 10.078125 -21.578125 C 9.378906 -21.109375 9.03125 -20.503906 9.03125 -19.765625 C 9.03125 -19.066406 9.347656 -18.503906 9.984375 -18.078125 C 10.617188 -17.660156 11.867188 -17.222656 13.734375 -16.765625 C 16.796875 -16.015625 18.984375 -15.265625 20.296875 -14.515625 C 21.609375 -13.773438 22.597656 -12.851562 23.265625 -11.75 C 23.941406 -10.644531 24.28125 -9.285156 24.28125 -7.671875 Z M 24.28125 -7.671875 "/></g></g></g><g clip-path="url(#2c1611d8f9)"><path fill="#00bf63" d="M 159.375 70.648438 L 159.761719 70.78125 L 159.761719 74.285156 L 159.019531 74.066406 C 157.195312 73.523438 155.460938 72.6875 153.894531 71.59375 C 152.34375 70.515625 150.972656 69.199219 149.832031 67.6875 C 148.675781 66.160156 147.777344 64.476562 147.164062 62.671875 C 146.519531 60.816406 146.195312 58.863281 146.195312 56.878906 C 146.195312 46.992188 154.242188 38.945312 164.128906 38.945312 C 171.96875 38.945312 178.835938 43.960938 181.222656 51.421875 L 181.394531 51.972656 L 178.191406 52.996094 L 178.015625 52.445312 C 176.078125 46.386719 170.507812 42.308594 164.128906 42.308594 C 156.089844 42.308594 149.558594 48.839844 149.558594 56.878906 C 149.558594 58.4375 149.800781 59.972656 150.289062 61.4375 C 150.761719 62.855469 151.445312 64.191406 152.328125 65.40625 C 153.203125 66.609375 154.242188 67.664062 155.4375 68.554688 C 156.632812 69.460938 157.964844 70.160156 159.375 70.648438 Z M 171.058594 55.195312 L 171.058594 58.554688 L 178.605469 58.554688 C 178.488281 59.609375 178.246094 60.648438 177.898438 61.648438 C 177.496094 62.816406 176.9375 63.925781 176.253906 64.949219 L 176 65.320312 L 178.300781 67.871094 L 178.71875 67.285156 C 179.789062 65.800781 180.613281 64.160156 181.179688 62.4375 C 181.773438 60.640625 182.0625 58.777344 182.0625 56.878906 L 182.0625 55.195312 Z M 163.949219 72.144531 C 164.796875 72.144531 165.648438 72.082031 166.484375 71.964844 C 168.089844 71.734375 169.59375 71.285156 170.953125 70.640625 C 172.488281 69.910156 173.84375 68.917969 175 67.671875 L 174.890625 67.554688 C 173.742188 68.78125 172.394531 69.773438 170.882812 70.492188 C 169.539062 71.128906 168.050781 71.570312 166.460938 71.796875 C 165.648438 71.914062 164.820312 71.972656 164.003906 71.980469 L 164.003906 44.96875 L 163.839844 44.96875 L 163.839844 72.144531 L 163.917969 72.144531 C 163.925781 72.144531 163.933594 72.144531 163.949219 72.144531 Z M 163.933594 72.6875 C 164.8125 72.6875 165.695312 72.625 166.554688 72.5 C 168.214844 72.261719 169.773438 71.796875 171.183594 71.128906 C 172.765625 70.371094 174.167969 69.347656 175.363281 68.082031 L 175.253906 67.964844 C 174.066406 69.222656 172.679688 70.246094 171.113281 70.988281 C 169.71875 71.648438 168.175781 72.105469 166.53125 72.339844 C 165.523438 72.484375 164.484375 72.546875 163.453125 72.523438 L 163.453125 44.96875 L 163.285156 44.96875 L 163.285156 72.671875 L 163.367188 72.671875 C 163.5625 72.679688 163.75 72.6875 163.933594 72.6875 Z M 166.40625 71.429688 C 167.957031 71.207031 169.410156 70.773438 170.71875 70.152344 C 172.207031 69.445312 173.519531 68.476562 174.640625 67.269531 L 174.527344 67.152344 C 173.417969 68.351562 172.121094 69.308594 170.648438 70.011719 C 169.347656 70.625 167.914062 71.050781 166.378906 71.269531 C 165.773438 71.355469 165.160156 71.410156 164.539062 71.4375 L 164.539062 44.96875 L 164.382812 44.96875 L 164.382812 71.59375 L 164.46875 71.59375 C 165.113281 71.570312 165.765625 71.515625 166.40625 71.429688 Z M 162.847656 74.285156 C 163.152344 74.300781 163.515625 74.316406 163.925781 74.316406 C 164.726562 74.316406 165.710938 74.269531 166.789062 74.113281 C 168.617188 73.851562 170.332031 73.339844 171.882812 72.601562 C 173.609375 71.78125 175.144531 70.671875 176.457031 69.292969 L 176.347656 69.175781 C 175.039062 70.539062 173.519531 71.640625 171.8125 72.460938 C 170.269531 73.191406 168.570312 73.695312 166.757812 73.953125 C 165.144531 74.183594 163.742188 74.175781 162.855469 74.128906 C 162.492188 74.105469 162.144531 74.082031 161.824219 74.042969 L 161.824219 44.96875 L 161.65625 44.96875 L 161.65625 74.175781 L 161.726562 74.183594 C 162.082031 74.230469 162.460938 74.261719 162.847656 74.285156 Z M 176.71875 69.570312 C 175.371094 70.972656 173.804688 72.097656 172.050781 72.9375 C 170.457031 73.695312 168.703125 74.214844 166.84375 74.484375 C 165.183594 74.71875 163.742188 74.710938 162.832031 74.65625 C 162.027344 74.609375 161.46875 74.53125 161.289062 74.5 L 161.289062 44.96875 L 161.121094 44.96875 L 161.121094 74.640625 L 161.183594 74.65625 C 161.191406 74.65625 161.808594 74.773438 162.804688 74.828125 C 163.121094 74.84375 163.492188 74.859375 163.917969 74.859375 C 164.742188 74.859375 165.75 74.8125 166.851562 74.65625 C 168.734375 74.386719 170.5 73.859375 172.113281 73.097656 C 173.882812 72.253906 175.464844 71.113281 176.820312 69.703125 Z M 162.910156 73.199219 C 163.191406 73.214844 163.539062 73.230469 163.925781 73.230469 C 164.679688 73.230469 165.617188 73.183594 166.632812 73.042969 C 168.347656 72.796875 169.953125 72.316406 171.417969 71.625 C 173.050781 70.851562 174.496094 69.796875 175.734375 68.492188 L 175.625 68.375 C 174.394531 69.671875 172.960938 70.710938 171.347656 71.484375 C 169.90625 72.167969 168.308594 72.640625 166.609375 72.882812 C 165.082031 73.105469 163.757812 73.097656 162.917969 73.050781 C 162.917969 73.050781 162.917969 73.050781 162.910156 73.050781 L 162.910156 44.96875 L 162.742188 44.96875 L 162.742188 73.191406 L 162.824219 73.199219 C 162.855469 73.199219 162.886719 73.199219 162.910156 73.199219 Z M 162.878906 73.742188 C 163.167969 73.757812 163.523438 73.773438 163.925781 73.773438 C 164.703125 73.773438 165.664062 73.726562 166.710938 73.578125 C 168.484375 73.324219 170.144531 72.828125 171.65625 72.113281 C 173.332031 71.316406 174.820312 70.230469 176.09375 68.894531 L 175.984375 68.773438 C 174.71875 70.105469 173.246094 71.175781 171.585938 71.972656 C 170.089844 72.679688 168.445312 73.167969 166.6875 73.417969 C 165.121094 73.648438 163.75 73.632812 162.886719 73.585938 C 162.710938 73.578125 162.539062 73.5625 162.367188 73.546875 L 162.367188 44.96875 L 162.199219 44.96875 L 162.199219 73.695312 L 162.269531 73.703125 C 162.476562 73.71875 162.671875 73.726562 162.878906 73.742188 Z M 162.878906 73.742188 " fill-opacity="1" fill-rule="nonzero"/></g></svg>