<svg xmlns="http://www.w3.org/2000/svg" xmlns:xlink="http://www.w3.org/1999/xlink" width="500" zoomAndPan="magnify" viewBox="0 0 375 344.250003" height="459" preserveAspectRatio="xMidYMid meet" version="1.0"><defs><clipPath id="5f66899634"><path d="M 0.40625 0 L 374.589844 0 L 374.589844 343.5 L 0.40625 343.5 Z M 0.40625 0 " clip-rule="nonzero"/></clipPath><clipPath id="b9fd406275"><path d="M 0.445312 0 L 374.589844 0 L 374.589844 343.5 L 0.445312 343.5 Z M 0.445312 0 " clip-rule="nonzero"/></clipPath></defs><g clip-path="url(#5f66899634)"><path fill="#ffffff" d="M 0.40625 0 L 374.59375 0 L 374.59375 343.5 L 0.40625 343.5 Z M 0.40625 0 " fill-opacity="1" fill-rule="nonzero"/><path fill="#ffffff" d="M 0.40625 0 L 374.59375 0 L 374.59375 343.5 L 0.40625 343.5 Z M 0.40625 0 " fill-opacity="1" fill-rule="nonzero"/></g><path fill="#00bf63" d="M 187.53125 71.878906 C 236.53125 71.878906 276.253906 111.59375 276.253906 160.582031 C 276.253906 209.570312 236.53125 249.285156 187.53125 249.285156 L 99.910156 249.285156 C 110.253906 242.3125 119.628906 234.699219 128.3125 226.628906 L 128.351562 226.65625 C 110.214844 210.425781 98.820312 186.847656 98.820312 160.582031 C 98.820312 111.59375 138.542969 71.878906 187.542969 71.878906 Z M 187.53125 71.878906 " fill-opacity="1" fill-rule="evenodd"/><g clip-path="url(#b9fd406275)"><path fill="#000000" d="M 46.144531 84.863281 L 43.789062 84.863281 C 19.949219 84.863281 0.445312 104.363281 0.445312 128.191406 L 0.445312 170.207031 C 0.445312 194.109375 20.042969 213.542969 43.789062 213.542969 L 67.707031 213.542969 C 60.539062 197.347656 56.554688 179.421875 56.554688 160.570312 C 56.554688 88.480469 114.953125 29.601562 187.542969 29.601562 C 260.121094 29.601562 318.527344 88.472656 318.527344 160.570312 C 318.527344 179.421875 314.554688 197.339844 307.375 213.542969 C 291.242188 249.984375 258.964844 277.675781 219.621094 287.578125 C 213.207031 276.53125 201.234375 269.113281 187.542969 269.113281 C 167.070312 269.113281 150.460938 285.699219 150.460938 306.183594 C 150.460938 326.652344 167.070312 343.25 187.542969 343.25 C 204.261719 343.25 218.402344 332.183594 223.019531 316.964844 C 277.398438 304.6875 321.292969 264.8125 339.195312 212.808594 C 359.285156 209.066406 374.628906 191.335938 374.628906 170.207031 L 374.628906 128.191406 C 374.628906 104.363281 355.125 84.863281 331.285156 84.863281 L 328.929688 84.863281 C 301.894531 34.496094 248.714844 0.253906 187.53125 0.253906 C 126.359375 0.253906 73.179688 34.496094 46.136719 84.863281 Z M 46.144531 84.863281 " fill-opacity="1" fill-rule="evenodd"/></g></svg>