<svg xmlns="http://www.w3.org/2000/svg" xmlns:xlink="http://www.w3.org/1999/xlink" width="278" zoomAndPan="magnify" viewBox="0 0 208.5 182.249993" height="243" preserveAspectRatio="xMidYMid meet" version="1.0"><defs><g/><clipPath id="63b6e106f7"><path d="M 43.769531 0.0976562 L 165.058594 0.0976562 L 165.058594 110.90625 L 43.769531 110.90625 Z M 43.769531 0.0976562 " clip-rule="nonzero"/></clipPath></defs><path fill="#00bf63" d="M 104.414062 23.285156 C 120.296875 23.285156 133.171875 36.097656 133.171875 51.898438 C 133.171875 67.703125 120.296875 80.515625 104.414062 80.515625 L 76.007812 80.515625 C 79.363281 78.265625 82.402344 75.808594 85.214844 73.207031 L 85.230469 73.214844 C 79.351562 67.976562 75.65625 60.371094 75.65625 51.898438 C 75.65625 36.097656 88.53125 23.285156 104.414062 23.285156 Z M 104.414062 23.285156 " fill-opacity="1" fill-rule="evenodd"/><g clip-path="url(#63b6e106f7)"><path fill="#000000" d="M 58.582031 27.472656 L 57.820312 27.472656 C 50.089844 27.472656 43.769531 33.761719 43.769531 41.449219 L 43.769531 55.003906 C 43.769531 62.714844 50.121094 68.984375 57.820312 68.984375 L 65.570312 68.984375 C 63.246094 63.757812 61.957031 57.976562 61.957031 51.894531 C 61.957031 28.640625 80.886719 9.644531 104.414062 9.644531 C 127.941406 9.644531 146.875 28.636719 146.875 51.894531 C 146.875 57.976562 145.585938 63.757812 143.261719 68.984375 C 138.03125 80.738281 127.566406 89.671875 114.816406 92.867188 C 112.734375 89.304688 108.855469 86.910156 104.414062 86.910156 C 97.78125 86.910156 92.394531 92.261719 92.394531 98.871094 C 92.394531 105.472656 97.78125 110.824219 104.414062 110.824219 C 109.835938 110.824219 114.417969 107.253906 115.917969 102.347656 C 133.542969 98.386719 147.773438 85.523438 153.574219 68.746094 C 160.085938 67.539062 165.058594 61.820312 165.058594 55.003906 L 165.058594 41.449219 C 165.058594 33.761719 158.738281 27.472656 151.007812 27.472656 L 150.246094 27.472656 C 141.484375 11.226562 124.246094 0.179688 104.414062 0.179688 C 84.582031 0.179688 67.34375 11.226562 58.578125 27.472656 Z M 58.582031 27.472656 " fill-opacity="1" fill-rule="evenodd"/></g><g fill="#000000" fill-opacity="1"><g transform="translate(10.236739, 159.245602)"><g><path d="M 11.171875 -12.015625 L 11.171875 -16.828125 L 19.828125 -16.828125 L 19.828125 -5.703125 C 19.828125 -1.585938 17.894531 0.46875 14.03125 0.46875 L 8.140625 0.46875 C 4.273438 0.46875 2.34375 -1.585938 2.34375 -5.703125 L 2.34375 -24.546875 C 2.34375 -28.660156 4.273438 -30.71875 8.140625 -30.71875 L 14.03125 -30.71875 C 17.894531 -30.71875 19.828125 -28.660156 19.828125 -24.546875 L 19.828125 -21.703125 L 13.609375 -21.703125 L 13.609375 -25.34375 C 13.609375 -25.59375 13.519531 -25.8125 13.34375 -26 C 13.175781 -26.1875 12.96875 -26.28125 12.71875 -26.28125 L 9.78125 -26.28125 C 9.53125 -26.28125 9.316406 -26.1875 9.140625 -26 C 8.972656 -25.8125 8.890625 -25.59375 8.890625 -25.34375 L 8.890625 -4.953125 C 8.890625 -4.703125 8.972656 -4.484375 9.140625 -4.296875 C 9.316406 -4.109375 9.53125 -4.015625 9.78125 -4.015625 L 12.71875 -4.015625 C 12.96875 -4.015625 13.175781 -4.109375 13.34375 -4.296875 C 13.519531 -4.484375 13.609375 -4.703125 13.609375 -4.953125 L 13.609375 -12.015625 Z M 11.171875 -12.015625 "/></g></g></g><g fill="#000000" fill-opacity="1"><g transform="translate(31.329853, 159.245602)"><g><path d="M 8.890625 -5.421875 L 16.140625 -5.421875 L 16.140625 0 L 2.34375 0 L 2.34375 -30.25 L 16.140625 -30.25 L 16.140625 -24.921875 L 8.890625 -24.921875 L 8.890625 -17.8125 L 15.671875 -17.8125 L 15.671875 -12.671875 L 8.890625 -12.671875 Z M 8.890625 -5.421875 "/></g></g></g><g fill="#000000" fill-opacity="1"><g transform="translate(48.915248, 159.245602)"><g><path d="M 8.890625 -5.421875 L 16.140625 -5.421875 L 16.140625 0 L 2.34375 0 L 2.34375 -30.25 L 16.140625 -30.25 L 16.140625 -24.921875 L 8.890625 -24.921875 L 8.890625 -17.8125 L 15.671875 -17.8125 L 15.671875 -12.671875 L 8.890625 -12.671875 Z M 8.890625 -5.421875 "/></g></g></g><g fill="#000000" fill-opacity="1"><g transform="translate(66.500642, 159.245602)"><g><path d="M 21.1875 -30.25 L 16.046875 -16.375 L 22.171875 0 L 15.484375 0 L 10.984375 -11.96875 L 8.890625 -11.96875 L 8.890625 0 L 2.34375 0 L 2.34375 -30.25 L 8.890625 -30.25 L 8.890625 -17.578125 L 10.46875 -17.578125 L 15.203125 -30.25 Z M 21.1875 -30.25 "/></g></g></g><g fill="#000000" fill-opacity="1"><g transform="translate(88.575925, 159.245602)"><g/></g></g><g fill="#000000" fill-opacity="1"><g transform="translate(98.023398, 159.245602)"><g><path d="M 8.890625 -5.515625 L 16.046875 -5.515625 L 16.046875 0 L 2.34375 0 L 2.34375 -30.25 L 8.890625 -30.25 Z M 8.890625 -5.515625 "/></g></g></g><g fill="#000000" fill-opacity="1"><g transform="translate(114.813702, 159.245602)"><g><path d="M 14.359375 -30.71875 C 18.222656 -30.71875 20.15625 -28.660156 20.15625 -24.546875 L 20.15625 0 L 13.609375 0 L 13.609375 -10.140625 L 8.890625 -10.140625 L 8.890625 0 L 2.34375 0 L 2.34375 -24.546875 C 2.34375 -28.660156 4.273438 -30.71875 8.140625 -30.71875 Z M 8.890625 -15.203125 L 13.609375 -15.203125 L 13.609375 -25.34375 C 13.609375 -25.59375 13.519531 -25.8125 13.34375 -26 C 13.175781 -26.1875 12.96875 -26.28125 12.71875 -26.28125 L 9.78125 -26.28125 C 9.53125 -26.28125 9.316406 -26.1875 9.140625 -26 C 8.972656 -25.8125 8.890625 -25.59375 8.890625 -25.34375 Z M 8.890625 -15.203125 "/></g></g></g><g fill="#000000" fill-opacity="1"><g transform="translate(137.496988, 159.245602)"><g><path d="M 19.6875 0 L 13.140625 0 L 13.140625 -25.109375 C 13.140625 -25.359375 13.050781 -25.578125 12.875 -25.765625 C 12.707031 -25.953125 12.5 -26.046875 12.25 -26.046875 L 9.734375 -26.046875 C 9.484375 -26.046875 9.269531 -25.953125 9.09375 -25.765625 C 8.925781 -25.578125 8.84375 -25.359375 8.84375 -25.109375 L 8.84375 0 L 2.296875 0 L 2.296875 -24.546875 C 2.296875 -28.660156 4.226562 -30.71875 8.09375 -30.71875 L 13.890625 -30.71875 C 17.753906 -30.71875 19.6875 -28.660156 19.6875 -24.546875 Z M 19.6875 0 "/></g></g></g><g fill="#000000" fill-opacity="1"><g transform="translate(159.244878, 159.245602)"><g><path d="M 8.890625 -5.421875 L 16.140625 -5.421875 L 16.140625 0 L 2.34375 0 L 2.34375 -30.25 L 16.140625 -30.25 L 16.140625 -24.921875 L 8.890625 -24.921875 L 8.890625 -17.8125 L 15.671875 -17.8125 L 15.671875 -12.671875 L 8.890625 -12.671875 Z M 8.890625 -5.421875 "/></g></g></g><g fill="#000000" fill-opacity="1"><g transform="translate(176.830263, 159.245602)"><g><path d="M 19.125 -22.3125 L 12.90625 -22.3125 L 12.90625 -24.6875 C 12.90625 -24.9375 12.816406 -25.15625 12.640625 -25.34375 C 12.472656 -25.53125 12.265625 -25.625 12.015625 -25.625 L 9.453125 -25.625 C 9.203125 -25.625 8.988281 -25.53125 8.8125 -25.34375 C 8.644531 -25.15625 8.5625 -24.9375 8.5625 -24.6875 L 8.5625 -19.3125 C 8.5625 -19.0625 8.644531 -18.84375 8.8125 -18.65625 C 8.988281 -18.46875 9.203125 -18.375 9.453125 -18.375 L 13.65625 -18.375 C 17.519531 -18.3125 19.453125 -16.253906 19.453125 -12.203125 L 19.453125 -5.703125 C 19.453125 -1.585938 17.519531 0.46875 13.65625 0.46875 L 8.140625 0.46875 C 4.273438 0.46875 2.34375 -1.585938 2.34375 -5.703125 L 2.34375 -8.84375 L 8.5625 -8.84375 L 8.5625 -5.46875 C 8.5625 -5.21875 8.644531 -5 8.8125 -4.8125 C 8.988281 -4.625 9.203125 -4.53125 9.453125 -4.53125 L 12.34375 -4.53125 C 12.59375 -4.53125 12.800781 -4.625 12.96875 -4.8125 C 13.144531 -5 13.234375 -5.21875 13.234375 -5.46875 L 13.234375 -11.40625 C 13.234375 -11.65625 13.144531 -11.875 12.96875 -12.0625 C 12.800781 -12.25 12.59375 -12.34375 12.34375 -12.34375 L 8.140625 -12.34375 C 4.273438 -12.34375 2.34375 -14.398438 2.34375 -18.515625 L 2.34375 -24.546875 C 2.34375 -28.660156 4.273438 -30.71875 8.140625 -30.71875 L 13.328125 -30.71875 C 17.191406 -30.71875 19.125 -28.660156 19.125 -24.546875 Z M 19.125 -22.3125 "/></g></g></g></svg>