<svg xmlns="http://www.w3.org/2000/svg" xmlns:xlink="http://www.w3.org/1999/xlink" width="500" zoomAndPan="magnify" viewBox="0 0 375 344.250003" height="459" preserveAspectRatio="xMidYMid meet" version="1.0"><defs><clipPath id="90665e3d59"><path d="M 50.097656 34.351562 L 324.75 34.351562 L 324.75 309 L 50.097656 309 Z M 50.097656 34.351562 " clip-rule="nonzero"/></clipPath></defs><g clip-path="url(#90665e3d59)"><path fill="#00bf63" d="M 151.0625 276.792969 L 154.011719 277.816406 L 154.011719 304.605469 L 148.351562 302.921875 C 134.386719 298.765625 121.140625 292.386719 109.160156 284.015625 C 97.300781 275.769531 86.824219 265.714844 78.09375 254.15625 C 69.246094 242.476562 62.382812 229.59375 57.683594 215.804688 C 52.75 201.597656 50.28125 186.667969 50.28125 171.496094 C 50.28125 95.878906 111.808594 34.351562 187.425781 34.351562 C 247.386719 34.351562 299.886719 72.699219 318.128906 129.773438 L 319.453125 133.988281 L 294.949219 141.816406 L 293.625 137.601562 C 278.816406 91.242188 236.191406 60.058594 187.425781 60.058594 C 125.957031 60.058594 75.988281 110.027344 75.988281 171.496094 C 75.988281 183.414062 77.851562 195.15625 81.585938 206.355469 C 85.199219 217.191406 90.4375 227.425781 97.179688 236.695312 C 103.863281 245.90625 111.808594 253.976562 120.960938 260.777344 C 130.109375 267.703125 140.285156 273.058594 151.0625 276.792969 Z M 240.40625 158.613281 L 240.40625 184.320312 L 298.140625 184.320312 C 297.238281 192.386719 295.371094 200.332031 292.722656 207.980469 C 289.652344 216.890625 285.378906 225.378906 280.140625 233.203125 L 278.214844 236.035156 L 295.792969 255.539062 L 298.984375 251.085938 C 307.171875 239.707031 313.492188 227.183594 317.828125 214 C 322.34375 200.273438 324.570312 186.003906 324.570312 171.496094 L 324.570312 158.613281 Z M 186.039062 288.230469 C 192.542969 288.230469 199.042969 287.75 205.425781 286.847656 C 217.707031 285.101562 229.207031 281.667969 239.621094 276.730469 C 251.363281 271.132812 261.71875 263.546875 270.566406 254.035156 L 269.722656 253.132812 C 260.933594 262.523438 250.640625 270.109375 239.082031 275.589844 C 228.785156 280.464844 217.40625 283.835938 205.246094 285.582031 C 199.042969 286.484375 192.722656 286.90625 186.460938 286.96875 L 186.460938 80.40625 L 185.199219 80.40625 L 185.199219 288.230469 L 185.800781 288.230469 C 185.859375 288.230469 185.921875 288.230469 186.039062 288.230469 Z M 185.921875 292.386719 C 192.664062 292.386719 199.40625 291.902344 205.96875 290.941406 C 218.671875 289.132812 230.589844 285.582031 241.367188 280.464844 C 253.46875 274.683594 264.183594 266.859375 273.335938 257.164062 L 272.492188 256.261719 C 263.402344 265.894531 252.808594 273.722656 240.828125 279.382812 C 230.171875 284.4375 218.371094 287.929688 205.789062 289.738281 C 198.082031 290.820312 190.132812 291.300781 182.246094 291.121094 L 182.246094 80.40625 L 180.984375 80.40625 L 180.984375 292.265625 L 181.585938 292.265625 C 183.089844 292.324219 184.535156 292.386719 185.921875 292.386719 Z M 204.824219 282.753906 C 216.683594 281.066406 227.820312 277.753906 237.816406 273 C 249.195312 267.582031 259.25 260.175781 267.796875 250.964844 L 266.953125 250.0625 C 258.464844 259.214844 248.53125 266.558594 237.273438 271.914062 C 227.339844 276.613281 216.382812 279.863281 204.644531 281.546875 C 200.007812 282.210938 195.3125 282.632812 190.554688 282.8125 L 190.554688 80.40625 L 189.351562 80.40625 L 189.351562 284.015625 L 190.015625 284.015625 C 194.949219 283.835938 199.949219 283.414062 204.824219 282.753906 Z M 177.613281 304.605469 C 179.960938 304.726562 182.730469 304.847656 185.859375 304.847656 C 192 304.847656 199.527344 304.488281 207.773438 303.28125 C 221.742188 301.296875 234.867188 297.382812 246.726562 291.722656 C 259.910156 285.460938 271.652344 276.972656 281.703125 266.4375 L 280.863281 265.535156 C 270.867188 275.949219 259.25 284.378906 246.183594 290.640625 C 234.382812 296.238281 221.378906 300.089844 207.535156 302.078125 C 195.191406 303.824219 184.476562 303.765625 177.671875 303.402344 C 174.902344 303.222656 172.253906 303.042969 169.785156 302.742188 L 169.785156 80.40625 L 168.519531 80.40625 L 168.519531 303.765625 L 169.0625 303.824219 C 171.773438 304.183594 174.660156 304.425781 177.613281 304.605469 Z M 283.691406 268.542969 C 273.398438 279.261719 261.417969 287.871094 247.992188 294.3125 C 235.828125 300.089844 222.402344 304.066406 208.195312 306.113281 C 195.492188 307.917969 184.476562 307.859375 177.492188 307.4375 C 171.351562 307.074219 167.074219 306.472656 165.691406 306.230469 L 165.691406 80.40625 L 164.425781 80.40625 L 164.425781 307.316406 L 164.910156 307.4375 C 164.96875 307.4375 169.664062 308.339844 177.3125 308.761719 C 179.71875 308.882812 182.546875 309 185.800781 309 C 192.121094 309 199.828125 308.640625 208.253906 307.4375 C 222.644531 305.390625 236.128906 301.355469 248.472656 295.515625 C 262.019531 289.074219 274.121094 280.34375 284.472656 269.566406 Z M 178.09375 296.296875 C 180.261719 296.417969 182.910156 296.539062 185.859375 296.539062 C 191.640625 296.539062 198.804688 296.179688 206.570312 295.09375 C 219.695312 293.226562 231.976562 289.554688 243.175781 284.257812 C 255.636719 278.359375 266.714844 270.289062 276.167969 260.296875 L 275.324219 259.394531 C 265.929688 269.328125 254.972656 277.273438 242.632812 283.175781 C 231.613281 288.410156 219.394531 292.023438 206.390625 293.890625 C 194.710938 295.578125 184.59375 295.515625 178.152344 295.15625 C 178.152344 295.15625 178.152344 295.15625 178.09375 295.15625 L 178.09375 80.40625 L 176.828125 80.40625 L 176.828125 296.238281 L 177.429688 296.296875 C 177.671875 296.296875 177.914062 296.296875 178.09375 296.296875 Z M 177.851562 300.453125 C 180.082031 300.574219 182.789062 300.695312 185.859375 300.695312 C 191.820312 300.695312 199.164062 300.332031 207.171875 299.1875 C 220.71875 297.261719 233.421875 293.46875 244.980469 287.992188 C 257.804688 281.910156 269.183594 273.601562 278.9375 263.367188 L 278.09375 262.464844 C 268.398438 272.636719 257.140625 280.828125 244.4375 286.90625 C 233 292.324219 220.417969 296.058594 206.992188 297.984375 C 195.011719 299.730469 184.535156 299.609375 177.914062 299.25 C 176.589844 299.1875 175.265625 299.066406 173.9375 298.949219 L 173.9375 80.40625 L 172.675781 80.40625 L 172.675781 300.089844 L 173.21875 300.152344 C 174.78125 300.273438 176.289062 300.332031 177.851562 300.453125 Z M 177.851562 300.453125 " fill-opacity="1" fill-rule="nonzero"/></g></svg>